<?xml version="1.0" standalone="no"?><!DOCTYPE svg PUBLIC "-//W3C//DTD SVG 1.1//EN" "http://www.w3.org/Graphics/SVG/1.1/DTD/svg11.dtd"><svg t="1716802451346" class="icon" viewBox="0 0 1024 1024" version="1.1" xmlns="http://www.w3.org/2000/svg" p-id="1053" xmlns:xlink="http://www.w3.org/1999/xlink" width="200" height="200"><path d="M512 64C264.58 64 64 264.58 64 512s200.58 448 448 448 448-200.58 448-448S759.42 64 512 64z m265.87 713.87a374.62 374.62 0 1 1 80.61-119.54 374.59 374.59 0 0 1-80.61 119.54z" p-id="1054" fill="#ffffff"></path><path d="M362 362m36 0l228 0q36 0 36 36l0 228q0 36-36 36l-228 0q-36 0-36-36l0-228q0-36 36-36Z" p-id="1055" fill="#ffffff"></path></svg>